<svg width="208" height="150" viewBox="0 0 208 150" fill="none" xmlns="http://www.w3.org/2000/svg">
<ellipse cx="112.964" cy="75" rx="69.8485" ry="75" fill="#C70000"/>
<g filter="url(#filter0_d_1_14)">
<path d="M115.478 124.172C116.596 119.205 118.086 113.692 119.949 107.632C121.904 101.474 124.093 95.0662 126.514 88.4106C129.029 81.755 131.59 75.149 134.198 68.5927C136.805 62.0364 139.32 55.7781 141.741 49.8179C144.163 43.7583 146.957 37.649 150.123 31.4901C150.775 30.298 151.334 29.2053 151.799 28.2119C152.358 27.2185 152.964 26.3742 153.616 25.6788C149.983 25.7781 146.072 26.2748 141.881 27.1689C137.783 27.9636 133.825 29.106 130.007 30.596C126.281 32.0861 123.068 33.8245 120.368 35.8112C117.76 37.798 116.084 39.9834 115.339 42.3675C115.245 42.6656 115.059 42.8146 114.78 42.8146C113.942 42.8146 113.522 42.1192 113.522 40.7285C113.522 40.4305 113.616 39.9834 113.802 39.3874C114.64 36.8046 115.665 34.5199 116.875 32.5331C118.179 30.5463 119.483 28.8576 120.787 27.4669C123.86 24.0894 127.306 22.053 131.124 21.3576C134.943 20.5629 138.994 20.1656 143.278 20.1656H177.224C181.136 20.1656 184.628 20.6126 187.702 21.5066C190.775 22.3013 193.336 23.4437 195.385 24.9338C198.086 26.8212 200.042 29.1556 201.252 31.9371C202.463 34.6192 203.068 37.4503 203.068 40.4305C203.068 45 202.137 49.0728 200.274 52.649C198.412 56.2252 195.944 59.3046 192.87 61.8874C189.89 64.4702 186.538 66.5563 182.812 68.1457C179.087 69.7351 175.315 70.9271 171.497 71.7218L167.026 72.6159C169.262 80.6622 172.102 87.9139 175.548 94.3709C178.994 100.828 182.579 106.49 186.305 111.358C190.03 116.225 193.383 120.397 196.363 123.874C194.966 124.172 192.824 124.321 189.937 124.321C187.422 124.321 185.001 124.272 182.673 124.172C180.344 123.974 179.18 123.874 179.18 123.874C176.852 123.874 174.57 122.533 172.335 119.851C170.1 117.169 167.958 113.742 165.909 109.57C163.86 105.298 161.997 100.877 160.321 96.3079C158.738 91.6391 157.387 87.3179 156.27 83.3444C155.245 79.3709 154.547 76.2914 154.174 74.106C154.174 73.8079 154.128 73.5099 154.035 73.2119C154.035 72.9139 154.035 72.5662 154.035 72.1689C154.035 71.5728 154.128 71.0762 154.314 70.6788C154.593 70.1821 155.106 69.8841 155.851 69.7848C160.507 69.1887 164.745 68.2947 168.563 67.1026C172.382 65.8113 175.874 64.0728 179.04 61.8874C182.207 59.6026 184.768 56.8212 186.724 53.543C188.68 50.1656 189.657 46.192 189.657 41.6225C189.657 37.947 188.68 34.6192 186.724 31.6391C184.861 28.5596 181.834 26.5232 177.643 25.5298C176.526 25.2318 175.315 25.0331 174.011 24.9338C172.801 24.8344 171.543 24.7351 170.24 24.6358C168.191 27.6159 166.049 31.192 163.813 35.3642C161.578 39.5364 159.39 43.9569 157.248 48.6258C155.106 53.1954 153.057 57.7649 151.101 62.3344C149.238 66.8046 147.562 70.9271 146.072 74.702C145.327 76.7881 144.209 79.8179 142.719 83.7914C141.322 87.7649 139.879 92.0861 138.389 96.755C136.898 101.424 135.595 105.944 134.477 110.315C133.453 114.586 132.94 118.113 132.94 120.894C132.94 122.384 133.127 123.477 133.499 124.172H115.478Z" fill="black"/>
</g>
<g filter="url(#filter1_d_1_14)">
<path d="M203.069 40.4309C203.069 37.4507 202.463 34.6188 201.252 31.9367C200.042 29.1554 198.086 26.8209 195.385 24.9336C193.465 23.5367 191.093 22.4453 188.272 21.6595L187.702 21.5062C184.821 20.6681 181.571 20.2228 177.953 20.1704L177.225 20.1656V19.1722C181.201 19.1722 184.778 19.626 187.947 20.5478C191.083 21.3613 193.741 22.5392 195.896 24.1032L196.417 24.4796C198.98 26.3901 200.886 28.7346 202.097 31.5186C203.365 34.3317 204 37.3062 204 40.4309C204 45.1488 203.037 49.3911 201.089 53.1313C199.167 56.8207 196.62 59.997 193.457 62.6577C190.401 65.3064 186.967 67.4432 183.158 69.0681C179.38 70.6799 175.552 71.8902 171.675 72.6972L171.669 72.6982L168.219 73.3879C170.389 80.9494 173.101 87.7787 176.357 93.8792C179.782 100.296 183.339 105.912 187.026 110.73C190.744 115.587 194.085 119.745 197.051 123.204L198.164 124.503L196.546 124.849C195.055 125.167 192.836 125.314 189.937 125.314C187.411 125.314 184.977 125.265 182.635 125.165L182.617 125.164L182.598 125.163C181.434 125.064 180.561 124.988 179.979 124.939C179.688 124.914 179.469 124.896 179.324 124.883C179.251 124.877 179.196 124.872 179.16 124.869C179.15 124.868 179.141 124.868 179.134 124.867C176.456 124.849 173.957 123.293 171.639 120.511C169.34 117.753 167.158 114.253 165.084 110.03L165.079 110.022C163.016 105.72 161.141 101.27 159.453 96.6702L159.45 96.6576L159.445 96.6459C157.857 91.9631 156.501 87.6242 155.378 83.6302L155.374 83.6185L155.372 83.6078C154.345 79.6256 153.638 76.5123 153.258 74.2833L153.243 74.196V74.1058C153.243 73.9202 153.215 73.7278 153.152 73.5256L153.103 73.3733V72.1685C153.103 71.4686 153.212 70.8081 153.481 70.2341L153.497 70.2002L153.515 70.1681C153.993 69.3192 154.822 68.9212 155.735 68.7993L155.74 68.7984C160.354 68.2078 164.54 67.3233 168.302 66.149C172.038 64.8835 175.447 63.1837 178.534 61.0531C181.593 58.843 184.057 56.1622 185.938 53.0101C187.785 49.8143 188.726 46.0307 188.726 41.6221C188.726 38.1483 187.806 35.0195 185.961 32.2083L185.95 32.1938L185.941 32.1773C184.243 29.3692 181.456 27.4509 177.441 26.4993L177.418 26.4935C176.359 26.2112 175.202 26.0208 173.945 25.925L173.94 25.924C172.892 25.8381 171.809 25.753 170.691 25.667C168.759 28.52 166.734 31.914 164.622 35.8569C162.397 40.0092 160.219 44.4114 158.085 49.0628L158.081 49.0705C155.944 53.6297 153.899 58.1883 151.948 62.7469C150.089 67.2087 148.417 71.3223 146.931 75.0875C146.184 77.1767 145.069 80.1947 143.59 84.1395L143.591 84.1404C142.198 88.1029 140.757 92.4142 139.27 97.0747C137.786 101.726 136.488 106.226 135.376 110.576C134.363 114.801 133.871 118.233 133.871 120.894C133.871 122.337 134.059 123.215 134.308 123.68L135.104 125.166H114.297L114.573 123.941C115.698 118.942 117.195 113.402 119.064 107.323L119.067 107.314C121.027 101.14 123.22 94.7187 125.646 88.0509L125.65 88.0392L127.547 83.053C129.452 78.0756 131.383 73.1261 133.34 68.2047C135.949 61.6463 138.465 55.3855 140.887 49.4227C143.321 43.333 146.127 37.196 149.306 31.0122L149.313 31.0006L149.319 30.9899C149.963 29.8121 150.512 28.7376 150.967 27.7672L150.982 27.7333L151.001 27.7013C151.183 27.3776 151.371 27.0669 151.564 26.77C148.587 26.9699 145.42 27.4267 142.064 28.1427L142.048 28.1465C138.001 28.9313 134.094 30.0592 130.327 31.5293L130.326 31.5283C126.661 32.995 123.521 34.6983 120.897 36.629C118.4 38.5342 116.885 40.5606 116.222 42.6815C116.131 42.9712 115.968 43.273 115.688 43.4973C115.403 43.725 115.079 43.8078 114.779 43.8078C114.074 43.8076 113.45 43.4884 113.053 42.8299C112.702 42.2466 112.591 41.4984 112.591 40.7287C112.591 40.2603 112.728 39.6843 112.919 39.0737L112.921 39.062L113.802 39.387C113.615 39.9831 113.523 40.4307 113.523 40.7287L113.527 40.9809C113.576 42.2032 113.994 42.8142 114.779 42.8144C115.024 42.8144 115.198 42.7004 115.3 42.4719L115.339 42.3672C116.084 39.9833 117.76 37.7979 120.367 35.8113C123.068 33.8245 126.282 32.0861 130.007 30.596C133.587 29.1991 137.289 28.1077 141.114 27.322L141.881 27.1687C146.072 26.2747 149.983 25.778 153.615 25.6786C152.963 26.3739 152.358 27.2182 151.799 28.2115C151.333 29.2049 150.775 30.2984 150.123 31.4905L149.534 32.6439C146.609 38.4121 144.011 44.1366 141.741 49.8175C139.32 55.7777 136.806 62.0365 134.198 68.5927L132.251 73.5189C130.312 78.4548 128.4 83.419 126.515 88.4108L125.617 90.8952C123.549 96.6643 121.66 102.243 119.949 107.632L119.268 109.879C117.719 115.062 116.456 119.826 115.478 124.172H133.499C133.173 123.564 132.99 122.651 132.949 121.434L132.94 120.894C132.94 118.113 133.453 114.586 134.477 110.315C135.455 106.49 136.575 102.551 137.839 98.4988L138.389 96.7546C139.879 92.0859 141.322 87.7646 142.719 83.7912C144.209 79.8179 145.327 76.7885 146.072 74.7024C147.562 70.9276 149.238 66.8047 151.101 62.3346C152.812 58.3363 154.595 54.3377 156.448 50.3394L157.248 48.6262C159.39 43.9573 161.578 39.5362 163.813 35.364C166.049 31.1919 168.191 27.6159 170.24 24.6358C171.544 24.7351 172.801 24.8342 174.012 24.9336C175.315 25.0329 176.526 25.2322 177.643 25.5302C181.834 26.5235 184.861 28.5596 186.723 31.6389C188.679 34.6189 189.657 37.9468 189.657 41.6221C189.657 46.1916 188.679 50.1652 186.723 53.5427C184.768 56.8208 182.207 59.6026 179.04 61.8874C175.874 64.0728 172.381 65.8113 168.563 67.1026C164.745 68.2946 160.507 69.189 155.851 69.785C155.106 69.8843 154.593 70.1819 154.314 70.6784C154.128 71.0757 154.035 71.5726 154.035 72.1685V73.2123C154.128 73.5101 154.175 73.8079 154.175 74.1058C154.547 76.2912 155.246 79.3706 156.27 83.344C157.388 87.3175 158.738 91.6395 160.321 96.3083C161.997 100.878 163.86 105.298 165.909 109.57C167.958 113.742 170.1 117.168 172.335 119.851C174.57 122.533 176.852 123.875 179.18 123.875C179.186 123.875 180.35 123.974 182.673 124.172C185.001 124.272 187.422 124.321 189.937 124.321C192.824 124.321 194.966 124.173 196.363 123.875C193.755 120.832 190.862 117.257 187.684 113.15L186.305 111.357C182.813 106.794 179.443 101.532 176.196 95.572L175.548 94.3711C172.102 87.9141 169.262 80.662 167.027 72.6157L171.497 71.7222C175.076 70.9772 178.615 69.8829 182.113 68.4394L182.813 68.1455C186.538 66.5561 189.891 64.4701 192.871 61.8874C195.752 59.4661 198.101 56.6082 199.918 53.3137L200.275 52.6492C202.021 49.2966 202.949 45.5073 203.058 41.2816L203.069 40.4309ZM143.278 20.1656L142.478 20.1704C138.489 20.217 134.704 20.6128 131.125 21.3578C127.306 22.0532 123.86 24.0891 120.787 27.4665C119.483 28.8572 118.179 30.5465 116.875 32.5333L116.65 32.9087C115.537 34.8062 114.588 36.9657 113.802 39.387L112.921 39.062C113.78 36.4147 114.837 34.0556 116.095 31.992L116.103 31.9774L116.113 31.9639C117.441 29.9402 118.778 28.2039 120.128 26.7641C123.317 23.2637 126.932 21.1129 130.967 20.378C134.844 19.5729 138.948 19.1722 143.278 19.1722V20.1656ZM177.225 19.1722V20.1656H143.278V19.1722H177.225Z" fill="#826969"/>
</g>
<g filter="url(#filter2_d_1_14)">
<path d="M77.8532 125.96C77.3875 125.96 76.8753 125.96 76.3165 125.96C75.7577 126.06 75.1989 126.109 74.6401 126.109C70.7286 126.109 66.724 125.613 62.6262 124.619C58.6216 123.725 55.0826 122.434 52.0092 120.745C50.9848 120.149 49.355 119.354 47.1198 118.361C44.9778 117.368 42.7892 116.374 40.5541 115.381C38.412 114.387 36.8288 113.593 35.8044 112.997C33.3829 111.705 31.2875 111.06 29.518 111.06C27.6554 111.06 26.0256 111.656 24.6286 112.848C23.2316 114.04 21.8347 115.53 20.4377 117.318C19.1338 119.007 17.5972 120.795 15.8277 122.682C14.8032 123.775 13.7788 124.57 12.7543 125.066C11.7299 125.563 10.7986 125.811 9.96041 125.811C8.47031 125.811 7.2596 125.215 6.32828 124.023C5.39697 122.831 4.93131 121.44 4.93131 119.851C4.93131 118.56 5.25727 117.268 5.90919 115.977C6.65424 114.685 7.77182 113.543 9.26192 112.55C14.291 109.172 19.5529 105.149 25.0477 100.48C30.6356 95.7119 36.2235 90.6457 41.8113 85.2815C47.3992 79.9172 52.6611 74.702 57.5971 69.6358C64.7682 62.3841 71.2874 55.7285 77.1547 49.6689C83.1151 43.6093 89.2152 37.2516 95.455 30.596C93.2199 31.5894 90.5656 32.5828 87.4923 33.5762C84.5121 34.4702 81.4853 35.2152 78.412 35.8113C75.4318 36.3079 72.8241 36.5563 70.5889 36.5563C68.0744 36.5563 65.2339 36.4073 62.0674 36.1093C58.9009 35.8113 55.8276 35.5132 52.8474 35.2152C49.8672 34.8179 47.3992 34.6192 45.4435 34.6192C43.7671 34.6192 41.951 35.1656 39.9953 36.2583C38.0395 37.351 36.3632 38.8907 34.9662 40.8775C33.5692 42.7649 32.7776 44.9007 32.5913 47.2848C32.5913 47.8808 32.1257 48.1788 31.1944 48.1788C30.8218 48.1788 30.5424 47.8808 30.3562 47.2848C30.263 46.8874 30.2165 46.5397 30.2165 46.2417C30.2165 45.9437 30.2165 45.596 30.2165 45.1987C30.2165 42.2185 30.9615 39.1887 32.4516 36.1093C33.9417 32.9305 35.7112 30.0993 37.7601 27.6159C39.809 25.1324 41.5785 23.394 43.0686 22.4007C44.6518 21.4073 46.4213 20.7119 48.3771 20.3146C50.426 19.9172 52.5214 19.7185 54.6635 19.7185C57.0849 19.7185 59.4597 19.9172 61.788 20.3146C64.1163 20.6126 66.2118 21.0099 68.0744 21.5066C72.731 22.5993 77.1547 23.4934 81.3456 24.1887C85.5365 24.7848 89.2152 25.0828 92.3817 25.0828C96.4795 25.0828 99.2268 24.4868 100.624 23.2947C101.928 22.1026 103.744 21.2086 106.072 20.6126C108.4 19.9172 110.589 19.5695 112.638 19.5695C114.5 19.5695 115.851 19.7682 116.689 20.1656C108.028 28.2119 99.2734 36.5066 90.4259 45.0497C81.6716 53.5927 73.2897 61.9868 65.2804 70.2318C59.6926 75.9934 54.1047 81.8046 48.5168 87.6656C42.9289 93.5265 37.3876 99.3377 31.8928 105.099C33.1967 105.795 34.8265 106.44 36.7822 107.036C38.8311 107.632 41.0197 108.228 43.348 108.824C45.0244 109.222 47.4924 109.818 50.752 110.613C54.0115 111.308 57.6437 111.954 61.6483 112.55C65.653 113.146 69.5179 113.444 73.2432 113.444C77.9929 113.444 82.0907 112.699 85.5365 111.209C88.9824 109.719 90.7053 106.887 90.7053 102.715C90.7053 100.828 90.0534 99.3874 88.7496 98.394C88.6564 98.2947 88.7961 98.0464 89.1686 97.649C89.5412 97.1523 89.8206 96.904 90.0068 96.904C92.6145 97.0033 94.8962 98.0464 96.852 100.033C98.9009 101.921 99.9253 104.305 99.9253 107.185C99.9253 109.768 99.0871 112.45 97.4108 115.232C95.7344 118.013 93.2199 120.447 89.8671 122.533C86.6075 124.52 82.6029 125.662 77.8532 125.96Z" fill="black"/>
<path d="M112.638 18.5764C114.524 18.5764 116.041 18.7708 117.067 19.2574L118.402 19.8908L117.301 20.9143C108.644 28.9563 99.8938 37.2476 91.0506 45.7866C82.3034 54.3227 73.9286 62.7097 65.9269 70.9469C60.3412 76.7063 54.7553 82.5151 49.1696 88.3737C43.9096 93.8908 38.6904 99.3635 33.5128 104.793C34.5203 105.24 35.6934 105.671 37.038 106.081C39.0738 106.673 41.249 107.265 43.5654 107.858C45.2406 108.255 47.6982 108.848 50.9386 109.638C54.176 110.329 57.7882 110.972 61.7769 111.566C65.7424 112.156 69.5642 112.451 73.2428 112.451L73.2432 113.444L71.8395 113.429C69.0195 113.373 66.121 113.15 63.1439 112.759L61.6483 112.55C58.1443 112.028 54.9254 111.469 51.9918 110.871L50.752 110.613C47.4924 109.818 45.0244 109.222 43.348 108.824C41.0197 108.228 38.8311 107.632 36.7822 107.036C34.8265 106.44 33.1967 105.795 31.8928 105.099L48.5168 87.6656C54.1047 81.8046 59.6926 75.9934 65.2804 70.2318C73.2897 61.9868 81.6716 53.5927 90.4259 45.0497C99.2734 36.5066 108.028 28.2119 116.689 20.1656C115.956 19.8179 114.83 19.6219 113.312 19.5785L112.638 19.5695C110.589 19.5695 108.4 19.9172 106.072 20.6126C103.744 21.2086 101.928 22.1026 100.624 23.2947C99.2268 24.4868 96.4795 25.0828 92.3817 25.0828L92.382 24.0894C94.394 24.0894 96.0381 23.9427 97.3296 23.6626C98.6324 23.3799 99.506 22.9759 100.042 22.5188C101.491 21.2035 103.449 20.2621 105.854 19.6464C108.238 18.9374 110.501 18.5764 112.638 18.5764ZM89.7736 102.716C89.7736 101.11 89.2392 99.9873 88.2084 99.2019L88.1457 99.1544L88.0911 99.0962C87.8093 98.7955 87.7652 98.4184 87.801 98.1513C87.8321 97.9191 87.923 97.734 87.9856 97.6226C88.108 97.405 88.2871 97.1874 88.474 96.9853C88.6674 96.7307 88.8643 96.5029 89.0615 96.3275C89.2319 96.1761 96.9714 89.4041 97.4108 89.404L90.0237 95.9104L90.0401 95.9114C92.8838 96.0197 95.38 97.1658 97.4943 99.3135C99.7252 101.385 100.857 104.031 100.857 107.186C100.857 110.006 99.9406 112.872 98.1946 115.769C96.4212 118.712 93.785 121.246 90.3366 123.391L90.3293 123.396L90.3284 123.395C86.9155 125.475 82.7631 126.647 77.9076 126.952L77.8803 126.953H76.3833C75.8032 127.052 75.2218 127.103 74.6398 127.103C70.6589 127.103 66.5904 126.597 62.4354 125.59C58.3633 124.681 54.7424 123.365 51.5825 121.629L51.5725 121.623L51.5634 121.617C50.5839 121.047 48.9912 120.269 46.7613 119.278L46.7486 119.272C44.6111 118.281 42.4266 117.289 40.1957 116.298L40.183 116.292C38.0473 115.302 36.4389 114.495 35.3764 113.879C33.0274 112.627 31.0842 112.053 29.5184 112.053C27.8578 112.053 26.4348 112.578 25.2101 113.623C23.8713 114.766 22.5182 116.206 21.1529 117.954C19.8272 119.671 18.271 121.481 16.4863 123.384C15.4045 124.538 14.2901 125.413 13.1394 125.971C12.0335 126.507 10.969 126.805 9.96077 126.805C8.20203 126.805 6.72568 126.084 5.61252 124.659C4.53822 123.284 4.00008 121.667 4 119.851C4 118.374 4.37468 116.923 5.08956 115.506L5.1023 115.48L5.11594 115.456C5.95192 114.007 7.1848 112.763 8.76844 111.707C13.7629 108.353 18.9956 104.353 24.4671 99.7035C30.0398 94.9482 35.6132 89.8944 41.188 84.5428C46.7688 79.1854 52.0235 73.9782 56.9512 68.9204L56.9566 68.9146C64.1258 61.665 70.6425 55.0115 76.507 48.9549L76.5124 48.95C81.484 43.8957 86.552 38.632 91.719 33.1617C90.4845 33.6171 89.166 34.0731 87.7628 34.5267L87.7446 34.5325C84.736 35.435 81.6806 36.1874 78.5788 36.7889L78.5669 36.7909L78.556 36.7928C75.5435 37.2949 72.8855 37.5495 70.5889 37.5495C68.041 37.5495 65.1721 37.3983 61.9852 37.0984C58.8173 36.8002 55.7421 36.5021 52.7603 36.204L52.7457 36.203L52.7321 36.201C49.7722 35.8064 47.346 35.6122 45.4435 35.6122C43.9578 35.6122 42.2907 36.0973 40.4276 37.1382C38.6014 38.1585 37.0295 39.5985 35.7111 41.4735L35.7047 41.4832L35.6974 41.4929C34.4133 43.2279 33.6902 45.1784 33.5192 47.3668L33.5183 47.3659C33.4955 47.9662 33.2222 48.487 32.7216 48.8074C32.2742 49.0937 31.7229 49.1722 31.1945 49.1722C30.2034 49.1722 29.6997 48.3245 29.4729 47.5987L29.4611 47.5628L29.4529 47.5259C29.3476 47.0769 29.2855 46.6446 29.2855 46.2415V45.1987C29.2855 42.0397 30.0748 38.8582 31.6184 35.6646C33.1416 32.4151 34.9552 29.512 37.0607 26.9599C39.1311 24.4504 40.9712 22.6276 42.5749 21.5584L42.5968 21.5448C44.2795 20.489 46.1509 19.7557 48.2028 19.3388L48.2101 19.3369C50.3155 18.9286 52.4675 18.7248 54.6638 18.7248C57.1205 18.7248 59.5323 18.9264 61.8988 19.3282C64.2577 19.6301 66.393 20.034 68.3007 20.5427C72.9237 21.6271 77.3122 22.5136 81.4682 23.2037C85.6309 23.7957 89.2677 24.0894 92.382 24.0894L92.3817 25.0828L91.1706 25.0692C88.2878 25.004 85.0128 24.7103 81.3456 24.1887C77.1547 23.4934 72.731 22.5993 68.0744 21.5066C66.2118 21.0099 64.1163 20.6126 61.788 20.3146C59.7509 19.9669 57.6781 19.7713 55.5697 19.7279L54.6635 19.7185C52.5214 19.7185 50.426 19.9172 48.3771 20.3146L48.0128 20.3924C46.2011 20.7998 44.5529 21.4694 43.0686 22.4007L42.7859 22.5955C41.3562 23.614 39.681 25.2877 37.7601 27.6159C35.7112 30.0993 33.9417 32.9305 32.4516 36.1093C30.9615 39.1887 30.2165 42.2185 30.2165 45.1987V46.2417L30.225 46.4744C30.2425 46.7164 30.2864 46.9868 30.3562 47.2848C30.5192 47.8063 30.7534 48.1001 31.059 48.1652L31.1944 48.1788C32.0674 48.1788 32.5315 47.9169 32.5861 47.393L32.5913 47.2848C32.766 45.0497 33.4727 43.0324 34.7115 41.2339L34.9662 40.8775C36.2758 39.015 37.8311 37.5456 39.6318 36.4688L39.9953 36.2583C41.951 35.1656 43.7671 34.6192 45.4435 34.6192C47.3992 34.6192 49.8672 34.8179 52.8474 35.2152C55.8276 35.5132 58.9009 35.8113 62.0674 36.1093C65.2339 36.4073 68.0744 36.5563 70.5889 36.5563C72.5447 36.5563 74.7857 36.366 77.3119 35.9857L78.412 35.8113C81.1009 35.2898 83.7546 34.6544 86.3722 33.9048L87.4923 33.5762C90.5656 32.5828 93.2199 31.5894 95.455 30.596C89.2152 37.2516 83.1151 43.6093 77.1547 49.6689C71.2874 55.7285 64.7682 62.3841 57.5971 69.6358C52.6611 74.702 47.3992 79.9172 41.8113 85.2815C36.2235 90.6457 30.6356 95.7119 25.0477 100.48L24.0205 101.348C18.8965 105.649 13.9767 109.383 9.26192 112.55L8.98671 112.738C7.63346 113.686 6.60766 114.766 5.90919 115.977L5.67982 116.461C5.18067 117.591 4.93131 118.721 4.93131 119.851L4.93677 120.146C4.99127 121.613 5.45522 122.906 6.32828 124.023C7.20139 125.141 8.32007 125.734 9.68429 125.804L9.96041 125.811C10.6937 125.811 11.4987 125.621 12.3745 125.241L12.7543 125.066C13.6506 124.632 14.5469 123.969 15.4432 123.078L15.8277 122.682C17.5972 120.795 19.1338 119.007 20.4377 117.318C21.6599 115.753 22.8828 114.417 24.1051 113.309L24.6286 112.848C26.0256 111.656 27.6554 111.06 29.518 111.06L29.854 111.067C31.551 111.143 33.5344 111.786 35.8044 112.997C36.8288 113.593 38.412 114.387 40.5541 115.381C42.7892 116.374 44.9778 117.368 47.1198 118.361C49.355 119.354 50.9848 120.149 52.0092 120.745C55.0826 122.434 58.6216 123.725 62.6262 124.619C66.4679 125.55 70.2279 126.045 73.9058 126.104L74.6401 126.109C75.1989 126.109 75.7577 126.06 76.3165 125.96H77.8532C82.306 125.681 86.1039 124.659 89.247 122.896L89.8671 122.533C93.0103 120.577 95.417 118.316 97.0868 115.749L97.4108 115.232C98.9824 112.624 99.8171 110.104 99.9153 107.671L99.9253 107.185C99.9253 104.305 98.9009 101.921 96.852 100.033C94.8962 98.0464 92.6145 97.0033 90.0068 96.904C89.8206 96.904 89.5412 97.1523 89.1686 97.649C88.7961 98.0464 88.6564 98.2947 88.7496 98.394C90.0534 99.3874 90.7053 100.828 90.7053 102.715L90.7004 103.103C90.596 107.063 88.8746 109.765 85.5365 111.209L84.8824 111.479C81.5756 112.789 77.6959 113.444 73.2432 113.444L73.2428 112.451C77.9042 112.451 81.8777 111.719 85.1862 110.288C86.7641 109.606 87.8919 108.643 88.6322 107.426C89.3746 106.206 89.7736 104.655 89.7736 102.716Z" fill="#656655"/>
</g>
<defs>
<filter id="filter0_d_1_14" x="109.522" y="20.1656" width="97.5458" height="112.156" filterUnits="userSpaceOnUse" color-interpolation-filters="sRGB">
<feFlood flood-opacity="0" result="BackgroundImageFix"/>
<feColorMatrix in="SourceAlpha" type="matrix" values="0 0 0 0 0 0 0 0 0 0 0 0 0 0 0 0 0 0 127 0" result="hardAlpha"/>
<feOffset dy="4"/>
<feGaussianBlur stdDeviation="2"/>
<feComposite in2="hardAlpha" operator="out"/>
<feColorMatrix type="matrix" values="0 0 0 0 0 0 0 0 0 0 0 0 0 0 0 0 0 0 0.25 0"/>
<feBlend mode="normal" in2="BackgroundImageFix" result="effect1_dropShadow_1_14"/>
<feBlend mode="normal" in="SourceGraphic" in2="effect1_dropShadow_1_14" result="shape"/>
</filter>
<filter id="filter1_d_1_14" x="108.591" y="19.1722" width="99.4088" height="114.142" filterUnits="userSpaceOnUse" color-interpolation-filters="sRGB">
<feFlood flood-opacity="0" result="BackgroundImageFix"/>
<feColorMatrix in="SourceAlpha" type="matrix" values="0 0 0 0 0 0 0 0 0 0 0 0 0 0 0 0 0 0 127 0" result="hardAlpha"/>
<feOffset dy="4"/>
<feGaussianBlur stdDeviation="2"/>
<feComposite in2="hardAlpha" operator="out"/>
<feColorMatrix type="matrix" values="0 0 0 0 0 0 0 0 0 0 0 0 0 0 0 0 0 0 0.25 0"/>
<feBlend mode="normal" in2="BackgroundImageFix" result="effect1_dropShadow_1_14"/>
<feBlend mode="normal" in="SourceGraphic" in2="effect1_dropShadow_1_14" result="shape"/>
</filter>
<filter id="filter2_d_1_14" x="0" y="18.5764" width="122.402" height="116.526" filterUnits="userSpaceOnUse" color-interpolation-filters="sRGB">
<feFlood flood-opacity="0" result="BackgroundImageFix"/>
<feColorMatrix in="SourceAlpha" type="matrix" values="0 0 0 0 0 0 0 0 0 0 0 0 0 0 0 0 0 0 127 0" result="hardAlpha"/>
<feOffset dy="4"/>
<feGaussianBlur stdDeviation="2"/>
<feComposite in2="hardAlpha" operator="out"/>
<feColorMatrix type="matrix" values="0 0 0 0 0 0 0 0 0 0 0 0 0 0 0 0 0 0 0.25 0"/>
<feBlend mode="normal" in2="BackgroundImageFix" result="effect1_dropShadow_1_14"/>
<feBlend mode="normal" in="SourceGraphic" in2="effect1_dropShadow_1_14" result="shape"/>
</filter>
</defs>
</svg>
