<svg width="272" height="44" viewBox="0 0 272 44" fill="none" xmlns="http://www.w3.org/2000/svg">
<g filter="url(#filter0_n_2_2)">
<path d="M34 43.7C32.6667 43.7 31.35 43.3167 30.05 42.55C28.75 41.7833 27.5 40.8 26.3 39.6C25.1 38.4333 23.9833 37.2333 22.95 36C21.9167 34.7667 21 33.7 20.2 32.8C19.1667 31.6 18.2 30.5 17.3 29.5C16.4 28.4667 15.4667 27.6333 14.5 27C13.5333 26.3667 12.4333 26.05 11.2 26.05C10.1667 26.05 9.13333 26.2667 8.1 26.7C7.1 27.1 6.21667 27.6833 5.45 28.45C4.68333 29.1833 4.15 30.05 3.85 31.05C3.75 31.45 3.65 31.8333 3.55 32.2C3.45 32.5667 3.28333 32.9 3.05 33.2C2.81667 33.5333 2.48333 33.7 2.05 33.7C1.71667 33.7 1.4 33.5667 1.1 33.3C0.766667 33.0333 0.6 32.6833 0.6 32.25C0.6 31.85 0.716667 31.4667 0.95 31.1C1.85 29.6667 3.13333 28.05 4.8 26.25C6.5 24.4167 8.41667 22.5167 10.55 20.55C12.6833 18.5833 14.8667 16.65 17.1 14.75C19.3333 12.8167 21.45 11.0333 23.45 9.4C25.4833 7.73333 27.2167 6.31667 28.65 5.15C27.0833 5.11667 25.5 5.1 23.9 5.1C22.3333 5.06666 20.7667 5.05 19.2 5.05C18.7 5.05 18 5.08333 17.1 5.15C16.2333 5.21666 15.35 5.36666 14.45 5.6C13.55 5.83333 12.8 6.21666 12.2 6.75C11.6 7.28333 11.3333 8 11.4 8.9C11.4333 9.16667 11.5333 9.53333 11.7 10C11.8667 10.4333 11.9667 10.7 12 10.8L11.5 11.2C11.3 10.8333 11.05 10.4167 10.75 9.95C10.45 9.45 10.1833 8.96667 9.95 8.5C9.71667 8.03333 9.58333 7.68333 9.55 7.45C9.55 7.38333 9.53333 7.3 9.5 7.2C9.5 7.1 9.5 7 9.5 6.9C9.5 6.53333 9.56667 6.16667 9.7 5.8C9.83333 5.4 10.0667 5.05 10.4 4.75C10.9333 4.28333 11.7 3.98333 12.7 3.85C13.7333 3.71666 14.7833 3.65 15.85 3.65C16.6833 3.65 17.4667 3.66666 18.2 3.7C18.9667 3.73333 19.5833 3.75 20.05 3.75H31.7C31.7333 3.75 31.75 3.8 31.75 3.9C31.75 4 31.7167 4.15 31.65 4.35C31.5833 4.55 31.5167 4.68333 31.45 4.75C27.25 7.78333 23.1 11.1167 19 14.75C14.9333 18.35 11.0333 22.1667 7.3 26.2C8.3 25.6667 9.23333 25.2833 10.1 25.05C11 24.8167 11.85 24.7 12.65 24.7C14.05 24.7 15.35 25.05 16.55 25.75C17.7833 26.4167 18.9833 27.3667 20.15 28.6C21.35 29.8333 22.6 31.25 23.9 32.85C25.2333 34.4167 26.5833 35.8833 27.95 37.25C29.35 38.65 30.6833 39.7667 31.95 40.6C33.2167 41.4333 34.3 41.85 35.2 41.85C36.3 41.85 37.1 41.5833 37.6 41.05C38.1 40.5167 38.35 39.85 38.35 39.05C38.35 38.05 38.0167 37.0167 37.35 35.95C37.1167 35.5833 36.8667 35.25 36.6 34.95C36.3667 34.65 36.1667 34.4167 36 34.25C35.9667 34.1833 36.05 34.0667 36.25 33.9C36.4833 33.7667 36.6167 33.7167 36.65 33.75C37.0167 33.9833 37.3667 34.2333 37.7 34.5C38.0333 34.7667 38.3333 35.0833 38.6 35.45C38.9667 35.8833 39.2167 36.35 39.35 36.85C39.5167 37.35 39.6 37.8333 39.6 38.3C39.6 39.2333 39.3333 40.1 38.8 40.9C38.3 41.7333 37.6167 42.4 36.75 42.9C35.9167 43.4 35 43.6667 34 43.7ZM137.416 32.15C136.583 32.15 135.733 31.8833 134.866 31.35C134.033 30.85 133.183 30.0333 132.316 28.9C131.25 27.4333 130.35 26.0333 129.616 24.7C128.883 23.3667 128.283 22.2 127.816 21.2C127.383 20.2 127.05 19.4833 126.816 19.05C126.816 19.05 126.9 18.95 127.066 18.75C127.233 18.5167 127.433 18.3 127.666 18.1C127.933 17.8667 128.15 17.75 128.316 17.75C129.883 17.75 131.283 17.7333 132.516 17.7C133.783 17.6333 134.9 17.4333 135.866 17.1C136.866 16.7333 137.75 16.1167 138.516 15.25C139.283 14.3833 139.933 13.15 140.466 11.55C140.633 11.15 140.733 10.75 140.766 10.35C140.833 9.91667 140.866 9.5 140.866 9.1C140.866 7.96667 140.583 6.96667 140.016 6.1C139.45 5.23333 138.633 4.73333 137.566 4.6C137.433 4.56667 137.283 4.55 137.116 4.55C136.95 4.55 136.783 4.55 136.616 4.55C135.983 4.55 135.283 4.63333 134.516 4.8C133.783 4.96666 133.233 5.28333 132.866 5.75C132.033 6.85 131.233 8.1 130.466 9.5C129.7 10.8667 128.966 12.2667 128.266 13.7C127.566 15.1 126.9 16.4167 126.266 17.65C126.1 17.9833 125.783 18.5833 125.316 19.45C124.85 20.2833 124.333 21.25 123.766 22.35C123.2 23.4167 122.666 24.4833 122.166 25.55C121.666 26.6167 121.266 27.5667 120.966 28.4C120.7 29.2333 120.633 29.8 120.766 30.1C120.8 30.1333 120.816 30.1833 120.816 30.25C120.816 30.35 120.766 30.4 120.666 30.4C120.4 30.4 120.133 30.3333 119.866 30.2C119.6 30.0667 119.283 30 118.916 30C118.583 30 118.25 30.0833 117.916 30.25C117.583 30.3833 117.15 30.6333 116.616 31C116.083 31.3667 115.483 31.6667 114.816 31.9C114.75 31.9333 114.65 31.95 114.516 31.95C114.283 31.95 114.1 31.8833 113.966 31.75C113.833 31.65 113.833 31.5667 113.966 31.5C114.7 31.3667 115.333 31.1 115.866 30.7C116.4 30.2667 116.833 29.7333 117.166 29.1C117.866 27.9333 118.55 26.7667 119.216 25.6C119.916 24.4 120.583 23.2 121.216 22C121.983 20.5333 122.766 19.0667 123.566 17.6C124.366 16.1 125.166 14.6167 125.966 13.15C126.733 11.7833 127.416 10.4667 128.016 9.2C128.616 7.93333 129.066 7.01667 129.366 6.45C129.6 6.01667 130 5.63333 130.566 5.3C131.166 4.93333 131.75 4.65 132.316 4.45C132.116 4.45 131.916 4.45 131.716 4.45C131.516 4.41667 131.3 4.4 131.066 4.4C130.033 4.4 128.9 4.46667 127.666 4.6C126.466 4.7 125.283 4.86667 124.116 5.1C122.983 5.33333 121.983 5.65 121.116 6.05C120.25 6.45 119.666 6.93333 119.366 7.5C119.233 7.8 119.116 8.1 119.016 8.4C118.916 8.7 118.866 9 118.866 9.3C118.866 10.0667 119.133 10.6167 119.666 10.95C119.7 10.95 119.716 10.9833 119.716 11.05C119.716 11.1167 119.65 11.1833 119.516 11.25C119.416 11.3167 119.333 11.3333 119.266 11.3C118.933 11.1333 118.55 10.7333 118.116 10.1C117.716 9.43333 117.45 8.88333 117.316 8.45C117.216 8.05 117.166 7.68333 117.166 7.35C117.166 6.48333 117.45 5.81667 118.016 5.35C118.583 4.85 119.3 4.5 120.166 4.3C121.033 4.06667 121.916 3.93333 122.816 3.9C123.75 3.83333 124.566 3.8 125.266 3.8C126.333 3.8 127.6 3.8 129.066 3.8C130.533 3.76667 131.883 3.75 133.116 3.75C133.416 3.75 133.75 3.75 134.116 3.75C134.483 3.71667 134.866 3.7 135.266 3.7C136.166 3.7 137.1 3.75 138.066 3.85C139.033 3.95 139.916 4.16667 140.716 4.5C141.516 4.83333 142.133 5.35 142.566 6.05C143.133 6.98333 143.416 8.05 143.416 9.25C143.416 11.0833 142.933 12.6167 141.966 13.85C141.633 14.2833 141.266 14.7 140.866 15.1C140.466 15.5 140 15.8833 139.466 16.25C138.6 16.85 137.566 17.3667 136.366 17.8C135.166 18.2 133.916 18.5 132.616 18.7C131.35 18.9 130.183 19.0333 129.116 19.1C129.55 20.0333 130.2 21.2833 131.066 22.85C131.966 24.4167 133.05 25.9833 134.316 27.55C134.983 28.3833 135.666 28.9667 136.366 29.3C137.066 29.6333 137.75 29.8 138.416 29.8C139.483 29.8 140.483 29.4833 141.416 28.85C142.383 28.2167 143.25 27.4833 144.016 26.65C144.816 25.7833 145.45 25.0333 145.916 24.4C146.016 24.2333 146.1 24.15 146.166 24.15C146.266 24.15 146.316 24.25 146.316 24.45C146.316 24.7167 146.216 24.9833 146.016 25.25C144.483 27.35 143.016 29.0333 141.616 30.3C140.216 31.5333 138.816 32.15 137.416 32.15Z" fill="#FD1010"/>
<path d="M29.2063 31.4C27.8396 31.4 26.8896 31.1333 26.3563 30.6C25.8229 30.0667 25.5563 29.4167 25.5563 28.65C25.5563 27.6833 25.8063 26.65 26.3062 25.55C26.8396 24.45 27.3396 23.5167 27.8063 22.75C28.3396 21.95 29.0563 21.1167 29.9563 20.25C30.8563 19.3833 31.8396 18.65 32.9063 18.05C33.9729 17.45 35.0063 17.15 36.0063 17.15C36.8729 17.15 37.4729 17.3667 37.8063 17.8C38.1396 18.2 38.3063 18.6833 38.3063 19.25C38.3063 20.2833 37.9896 21.1333 37.3563 21.8C36.7563 22.4667 36.0063 23.0167 35.1063 23.45C34.2063 23.85 33.3396 24.1833 32.5063 24.45C32.0063 24.5833 31.4229 24.7167 30.7563 24.85C30.0896 24.9833 29.4563 25.05 28.8563 25.05C28.6229 25.65 28.4396 26.2333 28.3063 26.8C28.1729 27.3667 28.1063 27.8833 28.1063 28.35C28.1063 28.9167 28.2396 29.3833 28.5063 29.75C28.8063 30.1167 29.2896 30.3 29.9563 30.3C30.2229 30.3 30.5396 30.2667 30.9062 30.2C31.2729 30.1333 31.6729 30.0333 32.1063 29.9C33.1063 29.5667 34.0896 29.0333 35.0563 28.3C36.0229 27.5667 36.9063 26.7833 37.7063 25.95C38.5396 25.0833 39.1729 24.3667 39.6063 23.8C39.7063 23.9 39.7563 24.0167 39.7563 24.15C39.7563 24.3167 39.6396 24.5833 39.4063 24.95C38.7396 25.8833 37.8729 26.85 36.8063 27.85C35.7396 28.85 34.5563 29.7 33.2563 30.4C31.9563 31.0667 30.6063 31.4 29.2063 31.4ZM29.2563 24.05C29.6896 24.0833 30.1729 24.0833 30.7063 24.05C31.2729 23.9833 31.8229 23.8667 32.3563 23.7C33.7229 23.3 34.7063 22.6667 35.3063 21.8C35.9396 20.9 36.2563 20.1 36.2563 19.4C36.2563 19 36.1729 18.6667 36.0063 18.4C35.8396 18.1333 35.5729 18 35.2063 18C34.2396 18 33.3729 18.3667 32.6063 19.1C31.8396 19.8 31.1729 20.6167 30.6063 21.55C30.0396 22.4833 29.5896 23.3167 29.2563 24.05ZM41.6574 31.4C40.2908 31.4 39.3408 31.1333 38.8074 30.6C38.2741 30.0667 38.0074 29.4167 38.0074 28.65C38.0074 27.6833 38.2574 26.65 38.7574 25.55C39.2908 24.45 39.7908 23.5167 40.2574 22.75C40.7908 21.95 41.5074 21.1167 42.4074 20.25C43.3074 19.3833 44.2908 18.65 45.3574 18.05C46.4241 17.45 47.4574 17.15 48.4574 17.15C49.3241 17.15 49.9241 17.3667 50.2574 17.8C50.5908 18.2 50.7574 18.6833 50.7574 19.25C50.7574 20.2833 50.4408 21.1333 49.8074 21.8C49.2074 22.4667 48.4574 23.0167 47.5574 23.45C46.6574 23.85 45.7908 24.1833 44.9574 24.45C44.4574 24.5833 43.8741 24.7167 43.2074 24.85C42.5408 24.9833 41.9074 25.05 41.3074 25.05C41.0741 25.65 40.8908 26.2333 40.7574 26.8C40.6241 27.3667 40.5574 27.8833 40.5574 28.35C40.5574 28.9167 40.6908 29.3833 40.9574 29.75C41.2574 30.1167 41.7408 30.3 42.4074 30.3C42.6741 30.3 42.9908 30.2667 43.3574 30.2C43.7241 30.1333 44.1241 30.0333 44.5574 29.9C45.5574 29.5667 46.5408 29.0333 47.5074 28.3C48.4741 27.5667 49.3574 26.7833 50.1574 25.95C50.9908 25.0833 51.6241 24.3667 52.0574 23.8C52.1574 23.9 52.2074 24.0167 52.2074 24.15C52.2074 24.3167 52.0908 24.5833 51.8574 24.95C51.1908 25.8833 50.3241 26.85 49.2574 27.85C48.1908 28.85 47.0074 29.7 45.7074 30.4C44.4074 31.0667 43.0574 31.4 41.6574 31.4ZM41.7074 24.05C42.1408 24.0833 42.6241 24.0833 43.1574 24.05C43.7241 23.9833 44.2741 23.8667 44.8074 23.7C46.1741 23.3 47.1574 22.6667 47.7574 21.8C48.3908 20.9 48.7074 20.1 48.7074 19.4C48.7074 19 48.6241 18.6667 48.4574 18.4C48.2908 18.1333 48.0241 18 47.6574 18C46.6908 18 45.8241 18.3667 45.0574 19.1C44.2908 19.8 43.6241 20.6167 43.0574 21.55C42.4908 22.4833 42.0408 23.3167 41.7074 24.05ZM51.5586 31.75C51.4253 31.75 51.4253 31.6 51.5586 31.3C51.7253 31 51.8753 30.6667 52.0086 30.3C52.1753 29.9333 52.3419 29.5333 52.5086 29.1C52.8419 28.3 53.2086 27.4 53.6086 26.4C54.0086 25.4 54.3919 24.4333 54.7586 23.5C55.1253 22.5333 55.4419 21.7167 55.7086 21.05C56.0086 20.35 56.2086 19.9 56.3086 19.7C55.8419 20.2 55.2753 20.8333 54.6086 21.6C53.9753 22.3333 53.3753 23.05 52.8086 23.75C52.2419 24.45 51.8086 25 51.5086 25.4C51.4086 25.5333 51.3253 25.6 51.2586 25.6C51.1919 25.6 51.1586 25.5167 51.1586 25.35C51.1586 25.0833 51.2419 24.8333 51.4086 24.6C52.0419 23.8 52.7419 22.9 53.5086 21.9C54.3086 20.9 55.0253 19.9833 55.6586 19.15C56.2919 18.2833 56.6919 17.7167 56.8586 17.45C57.2253 17.3833 57.7586 17.2833 58.4586 17.15C59.1919 17.0167 59.6919 16.8333 59.9586 16.6C60.0586 16.5 60.1586 16.45 60.2586 16.45C60.3253 16.45 60.3586 16.5167 60.3586 16.65C60.3919 16.75 60.3586 16.8667 60.2586 17C60.0586 17.2333 59.7086 17.7833 59.2086 18.65C58.7419 19.4833 58.2253 20.4167 57.6586 21.45C57.1253 22.4833 56.6253 23.4167 56.1586 24.25C56.5586 23.7167 56.9919 23.2 57.4586 22.7C57.9253 22.2 58.3753 21.7167 58.8086 21.25C59.2086 20.85 59.7586 20.35 60.4586 19.75C61.1586 19.15 61.8919 18.6 62.6586 18.1C63.4253 17.6 64.0919 17.3167 64.6586 17.25C64.7919 17.2167 64.9086 17.2 65.0086 17.2C65.1419 17.2 65.2419 17.2 65.3086 17.2C66.0419 17.2 66.4086 17.4667 66.4086 18C66.4086 18.4 66.1919 18.9333 65.7586 19.6C65.5253 19.9667 65.1586 20.5833 64.6586 21.45C64.1919 22.2833 63.7086 23.2 63.2086 24.2C62.7419 25.1667 62.3253 26.0833 61.9586 26.95C61.6253 27.7833 61.4586 28.4 61.4586 28.8C61.4586 29.2667 61.6919 29.5 62.1586 29.5C62.7253 29.5 63.3419 29.2167 64.0086 28.65C64.7086 28.0833 65.4586 27.3667 66.2586 26.5C67.0586 25.6 67.8586 24.65 68.6586 23.65C68.7253 23.7167 68.7586 23.8333 68.7586 24C68.7586 24.2333 68.6753 24.4667 68.5086 24.7C68.3753 24.9 68.2419 25.0833 68.1086 25.25C67.7753 25.6833 67.3253 26.2333 66.7586 26.9C66.2253 27.5333 65.6753 28.1667 65.1086 28.8C64.5419 29.4 64.0253 29.8833 63.5586 30.25C63.2253 30.4833 62.7919 30.7333 62.2586 31C61.7253 31.2667 61.1919 31.4 60.6586 31.4C60.0586 31.4 59.6419 31.25 59.4086 30.95C59.1753 30.6167 59.0586 30.2167 59.0586 29.75C59.0586 29.2167 59.1586 28.65 59.3586 28.05C59.5586 27.45 59.7753 26.8833 60.0086 26.35C60.2753 25.7833 60.4753 25.3667 60.6086 25.1C61.2086 23.9333 61.7586 22.8333 62.2586 21.8C62.7586 20.7667 63.1086 20.0333 63.3086 19.6C63.4086 19.4 63.4586 19.2333 63.4586 19.1C63.4586 18.8667 63.2753 18.85 62.9086 19.05C62.5419 19.25 62.0919 19.55 61.5586 19.95C61.0586 20.35 60.5919 20.75 60.1586 21.15C59.7253 21.5167 59.4419 21.7667 59.3086 21.9C58.0753 23.2 56.9919 24.65 56.0586 26.25C55.1586 27.8167 54.3919 29.4333 53.7586 31.1C53.3253 31.1333 52.8919 31.25 52.4586 31.45C52.0253 31.65 51.7253 31.75 51.5586 31.75ZM74.5625 31.15C74.2292 31.15 73.9458 31.0833 73.7125 30.95C73.4792 30.8167 73.3625 30.5667 73.3625 30.2C73.3625 29.7333 73.4792 29.2 73.7125 28.6C73.9458 28 74.2125 27.4167 74.5125 26.85C74.8125 26.25 75.0792 25.7667 75.3125 25.4C74.1458 26.6333 72.9292 27.8 71.6625 28.9C71.0292 29.4333 70.3292 29.9333 69.5625 30.4C68.7958 30.8667 67.9792 31.1 67.1125 31.1C66.7792 31.1 66.5458 31 66.4125 30.8C66.2792 30.5667 66.2125 30.3 66.2125 30C66.2125 29.8333 66.2292 29.7167 66.2625 29.65C66.4292 28.35 66.8458 27 67.5125 25.6C68.1792 24.2 68.9958 22.8833 69.9625 21.65C70.9292 20.4167 71.9125 19.4167 72.9125 18.65C74.0458 17.7833 75.2958 17.35 76.6625 17.35H82.4125C82.5792 17.35 82.6625 17.4167 82.6625 17.55C82.6625 17.8167 82.5125 17.95 82.2125 17.95C81.8792 17.95 81.5458 18.1667 81.2125 18.6C80.8792 19 80.6292 19.3333 80.4625 19.6C80.2292 19.9667 79.8625 20.5833 79.3625 21.45C78.8625 22.3167 78.3458 23.2667 77.8125 24.3C77.3125 25.3 76.8792 26.2333 76.5125 27.1C76.1458 27.9667 75.9625 28.6 75.9625 29C75.9625 29.4667 76.1958 29.7 76.6625 29.7C77.1625 29.7 77.7292 29.4667 78.3625 29C78.9958 28.5333 79.6292 27.9667 80.2625 27.3C80.9292 26.6 81.5292 25.9167 82.0625 25.25C82.6292 24.55 83.0792 24 83.4125 23.6C83.6125 23.8 83.5958 24.0833 83.3625 24.45C83.1625 24.7833 82.9792 25.05 82.8125 25.25C82.1458 26.1167 81.3792 27.0167 80.5125 27.95C79.6458 28.85 78.6958 29.6167 77.6625 30.25C76.6625 30.85 75.6292 31.15 74.5625 31.15ZM69.1625 29.4C69.5625 29.4 70.1125 29.1167 70.8125 28.55C71.5458 27.95 72.3292 27.2167 73.1625 26.35C73.9958 25.45 74.7792 24.5167 75.5125 23.55C76.2458 22.55 76.8458 21.65 77.3125 20.85C77.8125 20.0167 78.0625 19.3833 78.0625 18.95C78.0625 18.5833 77.9458 18.3333 77.7125 18.2C77.5125 18.0667 77.2458 18 76.9125 18C76.3792 18 75.7958 18.2 75.1625 18.6C74.5625 18.9667 74.0792 19.3333 73.7125 19.7C73.3125 20.0667 72.8292 20.65 72.2625 21.45C71.7292 22.2167 71.1958 23.0667 70.6625 24C70.1292 24.9333 69.6792 25.8333 69.3125 26.7C68.9458 27.5667 68.7625 28.2667 68.7625 28.8C68.7625 29.2 68.8958 29.4 69.1625 29.4ZM84.4598 31.15C84.1264 31.15 83.8431 31.0833 83.6098 30.95C83.3764 30.8167 83.2598 30.5667 83.2598 30.2C83.2598 29.7333 83.3764 29.1833 83.6098 28.55C83.8764 27.9167 84.1598 27.2833 84.4598 26.65C84.7598 26.0167 85.0098 25.5 85.2098 25.1C85.3764 24.8 85.5931 24.3333 85.8598 23.7C86.1598 23.0333 86.4598 22.35 86.7598 21.65C87.0931 20.9167 87.3598 20.3 87.5598 19.8C87.7931 19.3 87.9098 19.05 87.9098 19.05C87.6098 19.3833 87.2098 19.85 86.7098 20.45C86.2431 21.05 85.7264 21.6833 85.1598 22.35C84.6264 22.9833 84.1264 23.5833 83.6598 24.15C83.2264 24.7167 82.9098 25.1333 82.7098 25.4C82.6098 25.5333 82.5264 25.6 82.4598 25.6C82.3931 25.6 82.3598 25.5167 82.3598 25.35C82.3598 25.0833 82.4431 24.8333 82.6098 24.6C83.0098 24.1 83.4931 23.5 84.0598 22.8C84.6264 22.0667 85.1931 21.3333 85.7598 20.6C86.3598 19.8667 86.8764 19.2167 87.3098 18.65C87.0431 18.65 86.6931 18.6667 86.2598 18.7C85.8598 18.7333 85.4931 18.7833 85.1598 18.85C84.8264 18.8833 84.6431 18.9 84.6098 18.9C84.4431 18.9 84.4598 18.7667 84.6598 18.5C84.8598 18.2333 85.1264 17.9667 85.4598 17.7C85.7931 17.4333 86.0431 17.3 86.2098 17.3C86.2431 17.3 86.5098 17.3167 87.0098 17.35C87.5098 17.35 87.8764 17.35 88.1098 17.35C88.7764 16.45 89.4264 15.4167 90.0598 14.25C90.7264 13.0833 91.3764 11.8 92.0098 10.4C92.2764 10.3667 92.7264 10.1833 93.3598 9.85C94.0264 9.48333 94.5431 9.11667 94.9098 8.75C95.0764 8.58333 95.2098 8.5 95.3098 8.5C95.5098 8.5 95.5098 8.63333 95.3098 8.9C95.0764 9.16667 94.6764 9.73333 94.1098 10.6C93.5431 11.4333 92.9098 12.45 92.2098 13.65C91.5098 14.8167 90.8431 16.05 90.2098 17.35H94.2598C94.6264 17.35 94.8098 17.4 94.8098 17.5C94.8098 17.6333 94.5598 17.7667 94.0598 17.9C93.4931 18.0667 92.8931 18.1667 92.2598 18.2C91.6598 18.2333 91.0931 18.3 90.5598 18.4C90.0598 18.5 89.6931 18.7167 89.4598 19.05C89.2598 19.2833 88.9764 19.7833 88.6098 20.55C88.2431 21.3167 87.8431 22.2 87.4098 23.2C87.0098 24.1667 86.6598 25.15 86.3598 26.15C86.0598 27.1167 85.8764 27.9333 85.8098 28.6V28.8C85.8098 29.0667 85.8931 29.2833 86.0598 29.45C86.2264 29.6167 86.3931 29.7 86.5598 29.7C86.9931 29.7 87.5431 29.4333 88.2098 28.9C88.9098 28.3667 89.6264 27.7333 90.3598 27C91.0931 26.2333 91.7264 25.5333 92.2598 24.9C92.4931 24.6333 92.6931 24.3833 92.8598 24.15C93.0598 23.9167 93.1764 23.7667 93.2098 23.7C93.2764 23.8333 93.3098 23.9333 93.3098 24C93.3098 24.2 93.2431 24.4167 93.1098 24.65C93.0098 24.8833 92.8931 25.0833 92.7598 25.25C92.1264 26.0833 91.3598 26.9667 90.4598 27.9C89.5598 28.8 88.5931 29.5667 87.5598 30.2C86.5598 30.8333 85.5264 31.15 84.4598 31.15ZM99.7719 31.3C99.2719 31.3 98.8219 31.2 98.4219 31C98.0552 30.8 97.8719 30.4333 97.8719 29.9C97.8719 29.6 97.9385 29.2667 98.0719 28.9C98.3719 28.1333 98.7719 27.2 99.2719 26.1C99.8052 25 100.339 23.9333 100.872 22.9C101.405 21.8333 101.822 20.9667 102.122 20.3C102.322 19.9 102.422 19.6167 102.422 19.45C102.422 19.15 102.255 19.0833 101.922 19.25C101.589 19.4167 101.222 19.65 100.822 19.95C100.422 20.25 100.122 20.4833 99.9219 20.65C99.0552 21.45 98.1385 22.4 97.1719 23.5C96.2385 24.5667 95.3719 25.7 94.5719 26.9C93.8052 28.0667 93.2052 29.2333 92.7719 30.4C92.7385 30.6 92.5219 30.7667 92.1219 30.9C91.7219 31.0333 91.3552 31.1 91.0219 31.1C90.4885 31.1 90.2885 30.9333 90.4219 30.6C91.1885 28.8667 91.9719 26.95 92.7719 24.85C93.6052 22.75 94.5385 20.6 95.5719 18.4C96.3385 16.7333 97.1885 15.0167 98.1219 13.25C99.0885 11.4833 100.155 9.8 101.322 8.2C102.489 6.56667 103.772 5.13333 105.172 3.9C106.405 2.83333 107.755 1.96667 109.222 1.3C110.722 0.599999 112.339 0.25 114.072 0.25C114.839 0.25 115.505 0.416666 116.072 0.749999C116.639 1.05 116.955 1.6 117.022 2.4V2.85C117.022 3.31667 116.972 3.78333 116.872 4.25C116.839 4.38333 116.705 4.45 116.472 4.45C116.372 4.45 116.339 4.43333 116.372 4.4C116.505 3.53333 116.272 2.91667 115.672 2.55C115.105 2.18333 114.372 2 113.472 2C111.839 2 110.339 2.3 108.972 2.9C107.605 3.5 106.339 4.3 105.172 5.3C103.372 6.86667 101.805 8.86667 100.472 11.3C99.1385 13.7333 97.9885 16.2167 97.0219 18.75C96.5552 19.9833 96.0885 21.2167 95.6219 22.45C95.1885 23.6833 94.7719 24.8333 94.3719 25.9C95.8719 23.9 97.3052 22.1833 98.6719 20.75C100.072 19.3167 101.289 18.3 102.322 17.7C103.155 17.2333 103.905 17 104.572 17C105.205 17 105.522 17.2667 105.522 17.8C105.522 18.2667 105.289 18.8667 104.822 19.6C104.589 19.9667 104.222 20.5833 103.722 21.45C103.255 22.3167 102.755 23.2667 102.222 24.3C101.722 25.3 101.289 26.2333 100.922 27.1C100.555 27.9667 100.372 28.6 100.372 29C100.372 29.5333 100.605 29.8 101.072 29.8C101.339 29.8 101.639 29.7167 101.972 29.55C102.339 29.3833 102.605 29.2333 102.772 29.1C103.672 28.4333 104.555 27.6167 105.422 26.65C106.289 25.6833 107.022 24.8333 107.622 24.1C107.655 24.0667 107.672 24.1167 107.672 24.25C107.672 24.3833 107.639 24.5833 107.572 24.85C107.539 25.0833 107.439 25.2833 107.272 25.45C106.905 25.95 106.522 26.4333 106.122 26.9C105.755 27.3333 105.389 27.7667 105.022 28.2C104.389 28.9333 103.622 29.6333 102.722 30.3C101.855 30.9667 100.872 31.3 99.7719 31.3ZM148.445 31.4C147.078 31.4 146.128 31.1333 145.595 30.6C145.061 30.0667 144.795 29.4167 144.795 28.65C144.795 27.6833 145.045 26.65 145.545 25.55C146.078 24.45 146.578 23.5167 147.045 22.75C147.578 21.95 148.295 21.1167 149.195 20.25C150.095 19.3833 151.078 18.65 152.145 18.05C153.211 17.45 154.245 17.15 155.245 17.15C156.111 17.15 156.711 17.3667 157.045 17.8C157.378 18.2 157.545 18.6833 157.545 19.25C157.545 20.2833 157.228 21.1333 156.595 21.8C155.995 22.4667 155.245 23.0167 154.345 23.45C153.445 23.85 152.578 24.1833 151.745 24.45C151.245 24.5833 150.661 24.7167 149.995 24.85C149.328 24.9833 148.695 25.05 148.095 25.05C147.861 25.65 147.678 26.2333 147.545 26.8C147.411 27.3667 147.345 27.8833 147.345 28.35C147.345 28.9167 147.478 29.3833 147.745 29.75C148.045 30.1167 148.528 30.3 149.195 30.3C149.461 30.3 149.778 30.2667 150.145 30.2C150.511 30.1333 150.911 30.0333 151.345 29.9C152.345 29.5667 153.328 29.0333 154.295 28.3C155.261 27.5667 156.145 26.7833 156.945 25.95C157.778 25.0833 158.411 24.3667 158.845 23.8C158.945 23.9 158.995 24.0167 158.995 24.15C158.995 24.3167 158.878 24.5833 158.645 24.95C157.978 25.8833 157.111 26.85 156.045 27.85C154.978 28.85 153.795 29.7 152.495 30.4C151.195 31.0667 149.845 31.4 148.445 31.4ZM148.495 24.05C148.928 24.0833 149.411 24.0833 149.945 24.05C150.511 23.9833 151.061 23.8667 151.595 23.7C152.961 23.3 153.945 22.6667 154.545 21.8C155.178 20.9 155.495 20.1 155.495 19.4C155.495 19 155.411 18.6667 155.245 18.4C155.078 18.1333 154.811 18 154.445 18C153.478 18 152.611 18.3667 151.845 19.1C151.078 19.8 150.411 20.6167 149.845 21.55C149.278 22.4833 148.828 23.3167 148.495 24.05ZM161.046 31.8C160.446 31.8 159.812 31.7167 159.146 31.55C158.479 31.3833 157.879 31.1167 157.346 30.75C156.846 30.35 156.512 29.8167 156.346 29.15C156.312 29.05 156.296 28.9 156.296 28.7C156.296 28.2333 156.396 27.7167 156.596 27.15C156.829 26.5833 157.112 26.1833 157.446 25.95C157.579 25.8833 157.679 25.8833 157.746 25.95C157.846 26.0167 157.862 26.0833 157.796 26.15C157.762 26.25 157.712 26.3833 157.646 26.55C157.579 26.6833 157.529 26.8333 157.496 27C157.396 27.8667 157.579 28.6333 158.046 29.3C158.246 29.5667 158.479 29.8167 158.746 30.05C159.046 30.2833 159.329 30.4833 159.596 30.65C159.829 30.7833 160.112 30.8833 160.446 30.95C160.779 30.9833 161.112 31 161.446 31C161.979 31 162.496 30.9333 162.996 30.8C163.496 30.6667 163.862 30.45 164.096 30.15C164.529 29.6167 164.746 29.0167 164.746 28.35C164.746 27.85 164.612 27.3167 164.346 26.75C164.079 26.1833 163.662 25.5833 163.096 24.95C162.729 24.55 162.379 24.1167 162.046 23.65C161.712 23.1833 161.496 22.6833 161.396 22.15C161.362 22.05 161.329 21.95 161.296 21.85C161.296 21.75 161.296 21.65 161.296 21.55C160.862 22.1833 160.412 22.7833 159.946 23.35C159.512 23.8833 159.129 24.35 158.796 24.75C158.662 24.95 158.546 25.05 158.446 25.05C158.379 25.05 158.346 24.9833 158.346 24.85C158.346 24.55 158.479 24.2333 158.746 23.9C159.012 23.6 159.312 23.2333 159.646 22.8C159.979 22.3333 160.246 21.9667 160.446 21.7C161.012 20.8667 161.429 20.2167 161.696 19.75C161.996 19.25 162.312 18.8 162.646 18.4C163.012 17.9667 163.462 17.6167 163.996 17.35C164.562 17.0833 165.146 16.95 165.746 16.95C166.446 16.95 167.079 17.0667 167.646 17.3C168.246 17.5 168.562 18.0333 168.596 18.9C168.596 19.3 168.512 19.7167 168.346 20.15C168.212 20.55 168.062 20.9333 167.896 21.3C167.796 21.5 167.646 21.65 167.446 21.75C167.279 21.8167 167.196 21.7833 167.196 21.65C167.196 21.5167 167.212 21.3667 167.246 21.2C167.279 21.0333 167.296 20.8833 167.296 20.75C167.296 20.1833 167.196 19.6833 166.996 19.25C166.829 18.7833 166.579 18.45 166.246 18.25C165.912 18.0167 165.562 17.9 165.196 17.9C164.662 17.9 164.146 18.1167 163.646 18.55C163.146 18.95 162.896 19.4833 162.896 20.15C162.896 20.2167 162.896 20.3 162.896 20.4C162.896 20.5 162.912 20.5833 162.946 20.65C163.079 21.1833 163.479 21.7833 164.146 22.45C164.812 23.1167 165.329 23.7 165.696 24.2C166.329 25.0667 166.646 25.95 166.646 26.85C166.646 27.75 166.379 28.5833 165.846 29.35C165.346 30.0833 164.662 30.6667 163.796 31.1C162.962 31.5667 162.046 31.8 161.046 31.8ZM171.667 31.15C171.333 31.15 171.05 31.0833 170.817 30.95C170.583 30.8167 170.467 30.5667 170.467 30.2C170.467 29.7333 170.583 29.1833 170.817 28.55C171.083 27.9167 171.367 27.2833 171.667 26.65C171.967 26.0167 172.217 25.5 172.417 25.1C172.583 24.8 172.8 24.3333 173.067 23.7C173.367 23.0333 173.667 22.35 173.967 21.65C174.3 20.9167 174.567 20.3 174.767 19.8C175 19.3 175.117 19.05 175.117 19.05C174.817 19.3833 174.417 19.85 173.917 20.45C173.45 21.05 172.933 21.6833 172.367 22.35C171.833 22.9833 171.333 23.5833 170.867 24.15C170.433 24.7167 170.117 25.1333 169.917 25.4C169.817 25.5333 169.733 25.6 169.667 25.6C169.6 25.6 169.567 25.5167 169.567 25.35C169.567 25.0833 169.65 24.8333 169.817 24.6C170.217 24.1 170.7 23.5 171.267 22.8C171.833 22.0667 172.4 21.3333 172.967 20.6C173.567 19.8667 174.083 19.2167 174.517 18.65C174.25 18.65 173.9 18.6667 173.467 18.7C173.067 18.7333 172.7 18.7833 172.367 18.85C172.033 18.8833 171.85 18.9 171.817 18.9C171.65 18.9 171.667 18.7667 171.867 18.5C172.067 18.2333 172.333 17.9667 172.667 17.7C173 17.4333 173.25 17.3 173.417 17.3C173.45 17.3 173.717 17.3167 174.217 17.35C174.717 17.35 175.083 17.35 175.317 17.35C175.983 16.45 176.633 15.4167 177.267 14.25C177.933 13.0833 178.583 11.8 179.217 10.4C179.483 10.3667 179.933 10.1833 180.567 9.85C181.233 9.48333 181.75 9.11667 182.117 8.75C182.283 8.58333 182.417 8.5 182.517 8.5C182.717 8.5 182.717 8.63333 182.517 8.9C182.283 9.16667 181.883 9.73333 181.317 10.6C180.75 11.4333 180.117 12.45 179.417 13.65C178.717 14.8167 178.05 16.05 177.417 17.35H181.467C181.833 17.35 182.017 17.4 182.017 17.5C182.017 17.6333 181.767 17.7667 181.267 17.9C180.7 18.0667 180.1 18.1667 179.467 18.2C178.867 18.2333 178.3 18.3 177.767 18.4C177.267 18.5 176.9 18.7167 176.667 19.05C176.467 19.2833 176.183 19.7833 175.817 20.55C175.45 21.3167 175.05 22.2 174.617 23.2C174.217 24.1667 173.867 25.15 173.567 26.15C173.267 27.1167 173.083 27.9333 173.017 28.6V28.8C173.017 29.0667 173.1 29.2833 173.267 29.45C173.433 29.6167 173.6 29.7 173.767 29.7C174.2 29.7 174.75 29.4333 175.417 28.9C176.117 28.3667 176.833 27.7333 177.567 27C178.3 26.2333 178.933 25.5333 179.467 24.9C179.7 24.6333 179.9 24.3833 180.067 24.15C180.267 23.9167 180.383 23.7667 180.417 23.7C180.483 23.8333 180.517 23.9333 180.517 24C180.517 24.2 180.45 24.4167 180.317 24.65C180.217 24.8833 180.1 25.0833 179.967 25.25C179.333 26.0833 178.567 26.9667 177.667 27.9C176.767 28.8 175.8 29.5667 174.767 30.2C173.767 30.8333 172.733 31.15 171.667 31.15ZM186.379 31.15C186.046 31.15 185.762 31.0833 185.529 30.95C185.296 30.8167 185.179 30.5667 185.179 30.2C185.179 29.7333 185.296 29.2 185.529 28.6C185.762 28 186.029 27.4167 186.329 26.85C186.629 26.25 186.896 25.7667 187.129 25.4C185.962 26.6333 184.746 27.8 183.479 28.9C182.846 29.4333 182.146 29.9333 181.379 30.4C180.612 30.8667 179.796 31.1 178.929 31.1C178.596 31.1 178.362 31 178.229 30.8C178.096 30.5667 178.029 30.3 178.029 30C178.029 29.8333 178.046 29.7167 178.079 29.65C178.246 28.35 178.662 27 179.329 25.6C179.996 24.2 180.812 22.8833 181.779 21.65C182.746 20.4167 183.729 19.4167 184.729 18.65C185.862 17.7833 187.112 17.35 188.479 17.35H194.229C194.396 17.35 194.479 17.4167 194.479 17.55C194.479 17.8167 194.329 17.95 194.029 17.95C193.696 17.95 193.362 18.1667 193.029 18.6C192.696 19 192.446 19.3333 192.279 19.6C192.046 19.9667 191.679 20.5833 191.179 21.45C190.679 22.3167 190.162 23.2667 189.629 24.3C189.129 25.3 188.696 26.2333 188.329 27.1C187.962 27.9667 187.779 28.6 187.779 29C187.779 29.4667 188.012 29.7 188.479 29.7C188.979 29.7 189.546 29.4667 190.179 29C190.812 28.5333 191.446 27.9667 192.079 27.3C192.746 26.6 193.346 25.9167 193.879 25.25C194.446 24.55 194.896 24 195.229 23.6C195.429 23.8 195.412 24.0833 195.179 24.45C194.979 24.7833 194.796 25.05 194.629 25.25C193.962 26.1167 193.196 27.0167 192.329 27.95C191.462 28.85 190.512 29.6167 189.479 30.25C188.479 30.85 187.446 31.15 186.379 31.15ZM180.979 29.4C181.379 29.4 181.929 29.1167 182.629 28.55C183.362 27.95 184.146 27.2167 184.979 26.35C185.812 25.45 186.596 24.5167 187.329 23.55C188.062 22.55 188.662 21.65 189.129 20.85C189.629 20.0167 189.879 19.3833 189.879 18.95C189.879 18.5833 189.762 18.3333 189.529 18.2C189.329 18.0667 189.062 18 188.729 18C188.196 18 187.612 18.2 186.979 18.6C186.379 18.9667 185.896 19.3333 185.529 19.7C185.129 20.0667 184.646 20.65 184.079 21.45C183.546 22.2167 183.012 23.0667 182.479 24C181.946 24.9333 181.496 25.8333 181.129 26.7C180.762 27.5667 180.579 28.2667 180.579 28.8C180.579 29.2 180.712 29.4 180.979 29.4ZM197.076 31.15C196.743 31.15 196.46 31.0833 196.226 30.95C195.993 30.8167 195.876 30.5667 195.876 30.2C195.876 29.7333 195.993 29.1833 196.226 28.55C196.493 27.9167 196.776 27.2833 197.076 26.65C197.376 26.0167 197.626 25.5 197.826 25.1C198.226 24.3333 198.61 23.5667 198.976 22.8C199.343 22.0333 199.66 21.3833 199.926 20.85C200.193 20.35 200.326 20.0167 200.326 19.85C200.326 19.5833 200.126 19.5833 199.726 19.85C199.36 20.1167 199.01 20.3833 198.676 20.65C197.943 21.35 197.176 22.1833 196.376 23.15C195.576 24.0833 194.96 24.8333 194.526 25.4C194.426 25.5333 194.343 25.6 194.276 25.6C194.21 25.6 194.176 25.5167 194.176 25.35C194.176 25.0833 194.26 24.8333 194.426 24.6C194.893 23.9333 195.443 23.2 196.076 22.4C196.71 21.6 197.36 20.8333 198.026 20.1C198.66 19.4333 199.31 18.7833 199.976 18.15C200.643 17.5167 201.493 17.2 202.526 17.2C203.226 17.2 203.576 17.4667 203.576 18C203.576 18.4667 203.376 19 202.976 19.6C202.743 19.9667 202.376 20.5833 201.876 21.45C201.376 22.3167 200.86 23.2667 200.326 24.3C199.826 25.3 199.393 26.2333 199.026 27.1C198.66 27.9667 198.476 28.6 198.476 29C198.476 29.4667 198.71 29.7 199.176 29.7C199.543 29.7 199.993 29.5167 200.526 29.15C201.06 28.75 201.61 28.2833 202.176 27.75C203.21 26.75 204.143 25.6667 204.976 24.5C205.843 23.3 206.576 22.15 207.176 21.05C207.81 19.95 208.31 19.05 208.676 18.35C208.743 18.2167 208.81 18.0667 208.876 17.9C208.976 17.7 209.126 17.5833 209.326 17.55C209.526 17.5167 209.96 17.5 210.626 17.5C211.293 17.5 211.91 17.3667 212.476 17.1H212.576C212.676 17.1 212.726 17.15 212.726 17.25C212.726 17.5167 212.51 17.7167 212.076 17.85C211.676 17.9833 211.21 18.3833 210.676 19.05C210.176 19.7167 209.676 20.5333 209.176 21.5C208.676 22.4333 208.226 23.4 207.826 24.4C207.426 25.4 207.126 26.3167 206.926 27.15C206.726 27.9833 206.676 28.6 206.776 29C206.91 29.4667 207.143 29.7 207.476 29.7C207.91 29.7 208.51 29.4333 209.276 28.9C210.076 28.3667 210.893 27.7333 211.726 27C212.56 26.2333 213.243 25.5333 213.776 24.9C214.01 24.6333 214.226 24.3667 214.426 24.1C214.626 23.8333 214.76 23.6667 214.826 23.6C214.86 23.6333 214.893 23.7 214.926 23.8C214.96 23.8667 214.976 23.9333 214.976 24C214.943 24.2333 214.86 24.4667 214.726 24.7C214.593 24.9 214.443 25.0833 214.276 25.25C213.643 26.0833 212.876 26.9667 211.976 27.9C211.11 28.8 210.16 29.5667 209.126 30.2C208.126 30.8333 207.093 31.15 206.026 31.15C205.693 31.15 205.31 31.0667 204.876 30.9C204.476 30.7333 204.276 30.3667 204.276 29.8C204.276 29.3667 204.393 28.7833 204.626 28.05C204.86 27.2833 205.11 26.5333 205.376 25.8C205.676 25.0333 205.926 24.4667 206.126 24.1C205.693 24.7333 205.16 25.45 204.526 26.25C203.926 27.0167 203.31 27.7 202.676 28.3C201.843 29.1 200.943 29.7833 199.976 30.35C199.043 30.8833 198.076 31.15 197.076 31.15ZM214.205 31.7C214.072 31.7 214.072 31.5667 214.205 31.3C214.372 31 214.522 30.6667 214.655 30.3C214.822 29.9333 214.988 29.5333 215.155 29.1C215.488 28.3 215.855 27.4 216.255 26.4C216.655 25.4 217.038 24.4333 217.405 23.5C217.772 22.5333 218.088 21.7167 218.355 21.05C218.655 20.35 218.855 19.9 218.955 19.7C218.488 20.2 217.922 20.8333 217.255 21.6C216.622 22.3333 216.022 23.05 215.455 23.75C214.888 24.45 214.455 25 214.155 25.4C214.055 25.5333 213.972 25.6 213.905 25.6C213.838 25.6 213.805 25.5167 213.805 25.35C213.805 25.0833 213.888 24.8333 214.055 24.6C214.688 23.8 215.388 22.9 216.155 21.9C216.955 20.9 217.672 19.9833 218.305 19.15C218.938 18.2833 219.338 17.7167 219.505 17.45C219.872 17.3833 220.405 17.2833 221.105 17.15C221.838 17.0167 222.338 16.8333 222.605 16.6C222.705 16.5 222.805 16.45 222.905 16.45C222.972 16.45 223.005 16.5167 223.005 16.65C223.038 16.75 223.005 16.8667 222.905 17C222.705 17.2 222.405 17.6333 222.005 18.3C221.638 18.9667 221.222 19.7333 220.755 20.6C220.288 21.4667 219.838 22.3 219.405 23.1C219.738 22.6 220.172 22.0167 220.705 21.35C221.272 20.65 221.888 19.9833 222.555 19.35C223.222 18.6833 223.888 18.1333 224.555 17.7C225.255 17.2667 225.905 17.05 226.505 17.05C226.938 17.05 227.305 17.15 227.605 17.35C227.905 17.5167 228.138 17.8333 228.305 18.3C228.405 18.5333 228.455 18.8 228.455 19.1C228.455 19.6667 228.305 20.2167 228.005 20.75C227.738 21.25 227.538 21.6333 227.405 21.9C227.372 22 227.255 22.1 227.055 22.2C226.855 22.2667 226.772 22.2333 226.805 22.1C226.838 21.9333 226.855 21.7667 226.855 21.6C226.888 21.4333 226.905 21.25 226.905 21.05C226.905 20.4833 226.788 19.9667 226.555 19.5C226.355 19.0333 225.972 18.8 225.405 18.8C224.872 18.8 224.222 19.1333 223.455 19.8C222.688 20.4667 221.922 21.2333 221.155 22.1C220.188 23.2333 219.422 24.3167 218.855 25.35C218.288 26.35 217.822 27.3333 217.455 28.3C217.255 28.8333 217.055 29.3667 216.855 29.9C216.655 30.4 216.505 30.8 216.405 31.1C215.972 31.1333 215.538 31.2333 215.105 31.4C214.672 31.6 214.372 31.7 214.205 31.7ZM234.328 31.15C233.995 31.15 233.711 31.0833 233.478 30.95C233.245 30.8167 233.128 30.5667 233.128 30.2C233.128 29.7333 233.245 29.2 233.478 28.6C233.711 28 233.978 27.4167 234.278 26.85C234.578 26.25 234.845 25.7667 235.078 25.4C233.911 26.6333 232.695 27.8 231.428 28.9C230.795 29.4333 230.095 29.9333 229.328 30.4C228.561 30.8667 227.745 31.1 226.878 31.1C226.545 31.1 226.311 31 226.178 30.8C226.045 30.5667 225.978 30.3 225.978 30C225.978 29.8333 225.995 29.7167 226.028 29.65C226.195 28.35 226.611 27 227.278 25.6C227.945 24.2 228.761 22.8833 229.728 21.65C230.695 20.4167 231.678 19.4167 232.678 18.65C233.811 17.7833 235.061 17.35 236.428 17.35H242.178C242.345 17.35 242.428 17.4167 242.428 17.55C242.428 17.8167 242.278 17.95 241.978 17.95C241.645 17.95 241.311 18.1667 240.978 18.6C240.645 19 240.395 19.3333 240.228 19.6C239.995 19.9667 239.628 20.5833 239.128 21.45C238.628 22.3167 238.111 23.2667 237.578 24.3C237.078 25.3 236.645 26.2333 236.278 27.1C235.911 27.9667 235.728 28.6 235.728 29C235.728 29.4667 235.961 29.7 236.428 29.7C236.928 29.7 237.495 29.4667 238.128 29C238.761 28.5333 239.395 27.9667 240.028 27.3C240.695 26.6 241.295 25.9167 241.828 25.25C242.395 24.55 242.845 24 243.178 23.6C243.378 23.8 243.361 24.0833 243.128 24.45C242.928 24.7833 242.745 25.05 242.578 25.25C241.911 26.1167 241.145 27.0167 240.278 27.95C239.411 28.85 238.461 29.6167 237.428 30.25C236.428 30.85 235.395 31.15 234.328 31.15ZM228.928 29.4C229.328 29.4 229.878 29.1167 230.578 28.55C231.311 27.95 232.095 27.2167 232.928 26.35C233.761 25.45 234.545 24.5167 235.278 23.55C236.011 22.55 236.611 21.65 237.078 20.85C237.578 20.0167 237.828 19.3833 237.828 18.95C237.828 18.5833 237.711 18.3333 237.478 18.2C237.278 18.0667 237.011 18 236.678 18C236.145 18 235.561 18.2 234.928 18.6C234.328 18.9667 233.845 19.3333 233.478 19.7C233.078 20.0667 232.595 20.65 232.028 21.45C231.495 22.2167 230.961 23.0667 230.428 24C229.895 24.9333 229.445 25.8333 229.078 26.7C228.711 27.5667 228.528 28.2667 228.528 28.8C228.528 29.2 228.661 29.4 228.928 29.4ZM242.525 31.75C242.392 31.75 242.392 31.6 242.525 31.3C242.692 31 242.842 30.6667 242.975 30.3C243.142 29.9333 243.309 29.5333 243.475 29.1C243.809 28.3 244.175 27.4 244.575 26.4C244.975 25.4 245.359 24.4333 245.725 23.5C246.092 22.5333 246.409 21.7167 246.675 21.05C246.975 20.35 247.175 19.9 247.275 19.7C246.809 20.2 246.242 20.8333 245.575 21.6C244.942 22.3333 244.342 23.05 243.775 23.75C243.209 24.45 242.775 25 242.475 25.4C242.375 25.5333 242.292 25.6 242.225 25.6C242.159 25.6 242.125 25.5167 242.125 25.35C242.125 25.0833 242.209 24.8333 242.375 24.6C243.009 23.8 243.709 22.9 244.475 21.9C245.275 20.9 245.992 19.9833 246.625 19.15C247.259 18.2833 247.659 17.7167 247.825 17.45C248.192 17.3833 248.725 17.2833 249.425 17.15C250.159 17.0167 250.659 16.8333 250.925 16.6C251.025 16.5 251.125 16.45 251.225 16.45C251.292 16.45 251.325 16.5167 251.325 16.65C251.359 16.75 251.325 16.8667 251.225 17C251.025 17.2333 250.675 17.7833 250.175 18.65C249.709 19.4833 249.192 20.4167 248.625 21.45C248.092 22.4833 247.592 23.4167 247.125 24.25C247.525 23.7167 247.959 23.2 248.425 22.7C248.892 22.2 249.342 21.7167 249.775 21.25C250.175 20.85 250.725 20.35 251.425 19.75C252.125 19.15 252.859 18.6 253.625 18.1C254.392 17.6 255.059 17.3167 255.625 17.25C255.759 17.2167 255.875 17.2 255.975 17.2C256.109 17.2 256.209 17.2 256.275 17.2C257.009 17.2 257.375 17.4667 257.375 18C257.375 18.4 257.159 18.9333 256.725 19.6C256.492 19.9667 256.125 20.5833 255.625 21.45C255.159 22.2833 254.675 23.2 254.175 24.2C253.709 25.1667 253.292 26.0833 252.925 26.95C252.592 27.7833 252.425 28.4 252.425 28.8C252.425 29.2667 252.659 29.5 253.125 29.5C253.692 29.5 254.309 29.2167 254.975 28.65C255.675 28.0833 256.425 27.3667 257.225 26.5C258.025 25.6 258.825 24.65 259.625 23.65C259.692 23.7167 259.725 23.8333 259.725 24C259.725 24.2333 259.642 24.4667 259.475 24.7C259.342 24.9 259.209 25.0833 259.075 25.25C258.742 25.6833 258.292 26.2333 257.725 26.9C257.192 27.5333 256.642 28.1667 256.075 28.8C255.509 29.4 254.992 29.8833 254.525 30.25C254.192 30.4833 253.759 30.7333 253.225 31C252.692 31.2667 252.159 31.4 251.625 31.4C251.025 31.4 250.609 31.25 250.375 30.95C250.142 30.6167 250.025 30.2167 250.025 29.75C250.025 29.2167 250.125 28.65 250.325 28.05C250.525 27.45 250.742 26.8833 250.975 26.35C251.242 25.7833 251.442 25.3667 251.575 25.1C252.175 23.9333 252.725 22.8333 253.225 21.8C253.725 20.7667 254.075 20.0333 254.275 19.6C254.375 19.4 254.425 19.2333 254.425 19.1C254.425 18.8667 254.242 18.85 253.875 19.05C253.509 19.25 253.059 19.55 252.525 19.95C252.025 20.35 251.559 20.75 251.125 21.15C250.692 21.5167 250.409 21.7667 250.275 21.9C249.042 23.2 247.959 24.65 247.025 26.25C246.125 27.8167 245.359 29.4333 244.725 31.1C244.292 31.1333 243.859 31.25 243.425 31.45C242.992 31.65 242.692 31.75 242.525 31.75ZM260.729 31.15C260.396 31.15 260.113 31.0833 259.879 30.95C259.646 30.8167 259.529 30.5667 259.529 30.2C259.529 29.7333 259.646 29.1833 259.879 28.55C260.146 27.9167 260.429 27.2833 260.729 26.65C261.029 26.0167 261.279 25.5 261.479 25.1C261.646 24.8 261.863 24.3333 262.129 23.7C262.429 23.0333 262.729 22.35 263.029 21.65C263.363 20.9167 263.629 20.3 263.829 19.8C264.063 19.3 264.179 19.05 264.179 19.05C263.879 19.3833 263.479 19.85 262.979 20.45C262.513 21.05 261.996 21.6833 261.429 22.35C260.896 22.9833 260.396 23.5833 259.929 24.15C259.496 24.7167 259.179 25.1333 258.979 25.4C258.879 25.5333 258.796 25.6 258.729 25.6C258.663 25.6 258.629 25.5167 258.629 25.35C258.629 25.0833 258.713 24.8333 258.879 24.6C259.279 24.1 259.763 23.5 260.329 22.8C260.896 22.0667 261.463 21.3333 262.029 20.6C262.629 19.8667 263.146 19.2167 263.579 18.65C263.313 18.65 262.963 18.6667 262.529 18.7C262.129 18.7333 261.763 18.7833 261.429 18.85C261.096 18.8833 260.913 18.9 260.879 18.9C260.713 18.9 260.729 18.7667 260.929 18.5C261.129 18.2333 261.396 17.9667 261.729 17.7C262.063 17.4333 262.313 17.3 262.479 17.3C262.513 17.3 262.779 17.3167 263.279 17.35C263.779 17.35 264.146 17.35 264.379 17.35C265.046 16.45 265.696 15.4167 266.329 14.25C266.996 13.0833 267.646 11.8 268.279 10.4C268.546 10.3667 268.996 10.1833 269.629 9.85C270.296 9.48333 270.813 9.11667 271.179 8.75C271.346 8.58333 271.479 8.5 271.579 8.5C271.779 8.5 271.779 8.63333 271.579 8.9C271.346 9.16667 270.946 9.73333 270.379 10.6C269.813 11.4333 269.179 12.45 268.479 13.65C267.779 14.8167 267.113 16.05 266.479 17.35H270.529C270.896 17.35 271.079 17.4 271.079 17.5C271.079 17.6333 270.829 17.7667 270.329 17.9C269.763 18.0667 269.163 18.1667 268.529 18.2C267.929 18.2333 267.363 18.3 266.829 18.4C266.329 18.5 265.963 18.7167 265.729 19.05C265.529 19.2833 265.246 19.7833 264.879 20.55C264.513 21.3167 264.113 22.2 263.679 23.2C263.279 24.1667 262.929 25.15 262.629 26.15C262.329 27.1167 262.146 27.9333 262.079 28.6V28.8C262.079 29.0667 262.163 29.2833 262.329 29.45C262.496 29.6167 262.663 29.7 262.829 29.7C263.263 29.7 263.813 29.4333 264.479 28.9C265.179 28.3667 265.896 27.7333 266.629 27C267.363 26.2333 267.996 25.5333 268.529 24.9C268.763 24.6333 268.963 24.3833 269.129 24.15C269.329 23.9167 269.446 23.7667 269.479 23.7C269.546 23.8333 269.579 23.9333 269.579 24C269.579 24.2 269.513 24.4167 269.379 24.65C269.279 24.8833 269.163 25.0833 269.029 25.25C268.396 26.0833 267.629 26.9667 266.729 27.9C265.829 28.8 264.863 29.5667 263.829 30.2C262.829 30.8333 261.796 31.15 260.729 31.15Z" fill="#DDDDDD"/>
</g>
<defs>
<filter id="filter0_n_2_2" x="0.600006" y="0.25" width="271.279" height="43.45" filterUnits="userSpaceOnUse" color-interpolation-filters="sRGB">
<feFlood flood-opacity="0" result="BackgroundImageFix"/>
<feBlend mode="normal" in="SourceGraphic" in2="BackgroundImageFix" result="shape"/>
<feTurbulence type="fractalNoise" baseFrequency="2 2" stitchTiles="stitch" numOctaves="3" result="noise" seed="9797" />
<feColorMatrix in="noise" type="luminanceToAlpha" result="alphaNoise" />
<feComponentTransfer in="alphaNoise" result="coloredNoise1">
<feFuncA type="discrete" tableValues="1 1 1 1 1 1 1 1 1 1 1 1 1 1 1 1 1 1 1 1 1 1 1 1 1 1 1 1 1 1 1 1 1 1 1 1 1 1 1 1 1 1 1 1 1 1 1 1 1 1 1 0 0 0 0 0 0 0 0 0 0 0 0 0 0 0 0 0 0 0 0 0 0 0 0 0 0 0 0 0 0 0 0 0 0 0 0 0 0 0 0 0 0 0 0 0 0 0 0 0 "/>
</feComponentTransfer>
<feComposite operator="in" in2="shape" in="coloredNoise1" result="noise1Clipped" />
<feFlood flood-color="rgba(0, 0, 0, 0.25)" result="color1Flood" />
<feComposite operator="in" in2="noise1Clipped" in="color1Flood" result="color1" />
<feMerge result="effect1_noise_2_2">
<feMergeNode in="shape" />
<feMergeNode in="color1" />
</feMerge>
</filter>
</defs>
</svg>
